<svg width="289" height="110" viewBox="0 0 289 110" fill="none" xmlns="http://www.w3.org/2000/svg">
<path d="M2.03125 11.0699C2.03125 11.0699 11.2512 5.56988 31.2512 2.12988Z" fill="#46320F"/>
<path d="M2.03125 11.0699C2.03125 11.0699 11.2512 5.56988 31.2512 2.12988" stroke="#46320F" stroke-width="3" stroke-miterlimit="10" stroke-linecap="round"/>
<path d="M12.1719 22.74C12.2819 22.51 13.6319 8.81998 15.6519 5.97998Z" fill="#46320F"/>
<path d="M12.1719 22.74C12.2819 22.51 13.6319 8.81998 15.6519 5.97998" stroke="#46320F" stroke-width="3" stroke-miterlimit="10" stroke-linecap="round"/>
<path d="M24.0098 4.09009C24.0098 4.09009 22.0598 11.2301 20.8198 19.5801C20.2798 23.2601 19.8698 27.1701 19.8398 30.8101" fill="#46320F"/>
<path d="M24.0098 4.09009C24.0098 4.09009 22.0598 11.2301 20.8198 19.5801C20.2798 23.2601 19.8698 27.1701 19.8398 30.8101" stroke="#46320F" stroke-width="3" stroke-miterlimit="10" stroke-linecap="round"/>
<path d="M20.8281 19.9401C21.3281 16.0001 26.6981 15.1901 28.1481 15.0401C28.3281 15.0201 28.4581 15.1801 28.4181 15.3501C27.9681 16.9901 26.1781 23.9501 27.7881 25.1701C29.6181 26.5601 41.4581 16.2801 41.4581 13.0001C41.4581 11.7701 42.0381 10.4401 40.6781 9.86008C39.8181 9.49008 38.7581 9.73008 37.6181 10.3601C36.0681 11.2101 33.8381 14.9801 35.4481 18.7301C39.1481 27.3501 45.7781 20.4501 45.7781 20.4501" stroke="#46320F" stroke-width="3" stroke-miterlimit="10" stroke-linecap="round"/>
<path d="M15.5508 82.9599L19.8808 40.6299H31.5508L39.6608 67.0699H41.1608L48.5508 40.6299H60.2208L64.6608 82.9599H53.7708L51.7608 61.1999C51.7408 61.0099 51.4708 60.9799 51.4208 61.1599L44.7708 82.9499H35.7708L29.1408 60.4999C29.0808 60.3099 28.8108 60.3299 28.7908 60.5299L26.4408 82.9499H15.5508V82.9599Z" fill="#46320F"/>
<path d="M97.1994 38.78C84.9994 38.78 75.1094 48.67 75.1094 60.87C75.1094 73.07 84.9994 82.96 97.1994 82.96C109.399 82.96 119.289 73.07 119.289 60.87C119.289 48.67 109.399 38.78 97.1994 38.78ZM97.1994 71.79C91.3094 71.79 86.5294 66.9 86.5294 60.87C86.5294 54.84 91.3094 49.95 97.1994 49.95C103.089 49.95 107.869 54.84 107.869 60.87C107.869 66.9 103.089 71.79 97.1994 71.79Z" fill="#46320F"/>
<path d="M123.549 41.1299H134.489L143.779 66.6999C143.809 66.7899 143.939 66.7899 143.969 66.6999L152.659 41.1299H164.439L158.819 57.3799L162.759 66.5899C162.849 66.7799 162.999 66.7799 163.069 66.5899L172.489 41.1299H183.379L181.779 45.7499L167.489 82.9599H158.369L153.459 70.1899L148.539 82.9599H139.759L123.539 41.1299H123.549Z" fill="#46320F"/>
<path d="M218.341 52.6L223.971 44.86C223.971 44.86 219.671 40.15 210.691 39.94C198.631 39.66 192.961 48.6 192.961 48.6C192.961 48.6 189.371 53.16 189.371 61.81C189.371 71.52 196.671 77.77 196.671 77.77C196.671 77.77 202.061 82.96 210.691 82.96C220.761 82.96 225.131 80 225.131 80L225.021 63.78L215.161 63.71L215.231 72.67H209.011C207.261 72.36 206.141 72 204.991 71.27C202.811 69.89 200.221 67.32 200.271 61.81C200.341 53.11 205.771 51.05 205.771 51.05C205.771 51.05 212.861 47.48 218.341 52.6Z" fill="#46320F"/>
<path d="M237.5 40.96H248.56V73.13H265.5V82.96H237.5V40.96Z" fill="#46320F"/>
<path d="M277.672 40.6699H287.742V82.9599L277.672 82.6699V40.6699Z" fill="#46320F"/>
<path d="M259.771 93.0601C255.321 93.0601 251.711 96.6701 251.711 101.12C251.711 105.57 255.321 109.18 259.771 109.18C264.221 109.18 267.831 105.57 267.831 101.12C267.831 96.6701 264.221 93.0601 259.771 93.0601ZM259.771 105.11C257.621 105.11 255.881 103.33 255.881 101.13C255.881 98.9301 257.621 97.1501 259.771 97.1501C261.921 97.1501 263.661 98.9301 263.661 101.13C263.661 103.33 261.921 105.11 259.771 105.11Z" fill="#46320F"/>
<path d="M280.072 93.0601C275.622 93.0601 272.012 96.6701 272.012 101.12C272.012 105.57 275.622 109.18 280.072 109.18C284.522 109.18 288.132 105.57 288.132 101.12C288.132 96.6701 284.522 93.0601 280.072 93.0601ZM280.072 105.11C277.922 105.11 276.182 103.33 276.182 101.13C276.182 98.9301 277.922 97.1501 280.072 97.1501C282.222 97.1501 283.962 98.9301 283.962 101.13C283.962 103.33 282.222 105.11 280.072 105.11Z" fill="#46320F"/>
<path d="M189.738 93.72H201.708V96.79H197.738V109.19H193.848L193.778 96.79H189.738V93.72Z" fill="#46320F"/>
<path d="M220.328 93.72H232.288V96.79H228.328V109.19H224.438L224.368 96.79H220.328V93.72Z" fill="#46320F"/>
<path d="M236.262 93.72H248.222V96.79H244.262V109.19H240.372L240.292 96.79H236.262V93.72Z" fill="#46320F"/>
<path d="M213.37 93.72H208.55C208.55 93.72 203.74 108.84 203.59 109.18H207.52L208.52 107.15H213.56L214.63 109.18H218.59L213.37 93.72ZM209.31 104.04L211.09 98.86L212.87 104.04H209.31Z" fill="#46320F"/>
</svg>
